<svg xmlns="http://www.w3.org/2000/svg" version="1.1" xmlns:xlink="http://www.w3.org/1999/xlink" xmlns:svgjs="http://svgjs.com/svgjs" width="1585" height="300" transform="matrix(1,0,0,1,0,0)">
  <text font-family="DM Sans" font-size="260" text-anchor="left" x="310" charspacing="20px">
    <tspan dy="239.20000000000002" x="310">cquired</tspan>
  </text>
  <path transform="matrix(1,0,0,1,50,50)" d="M0,0L50,0A0,0,90,0,1,50,0L50,50L0,50ZM0,50L50,50L50,100L0,100ZM0,100L50,100L50,150L0,150ZM0,150L50,150L50,200L0,200ZM50,150L100,150L100,200L50,200ZM100,50A0,0,90,0,1,100,50L150,50L150,100L100,100A0,0,90,0,1,100,100ZM100,150L150,150L150,200L100,200ZM150,150L200,150L200,200L150,200ZM150,100L200,100A0,0,90,0,1,200,100L200,150L150,150ZM150,0A0,0,90,0,1,150,0L200,0L200,50L150,50ZM0,150L200,150L200,200L0,200ZM0,0L200,0L200,50L0,50Z"/>
</svg>